<svg xmlns="http://www.w3.org/2000/svg" viewBox="0 0 760 200" role="img" aria-label="National Academy of Sports Medicine">
  <!-- Official NASM lockup recreation from Hector-supplied brand artwork (2026-09-13). -->
  <rect width="760" height="200" rx="12" fill="#d5dce3"/>
  <g transform="translate(28 36)">
    <circle cx="64" cy="64" r="64" fill="#1e5aa8"/>
    <g fill="#fff">
      <ellipse cx="86" cy="28" rx="11" ry="13"/>
      <path d="M78 40c12 6 22 20 20 38-2 16-14 28-28 34-10 4-22 2-28-8 10 2 22-2 26-12 4-10 0-22-8-30-6-6-16-8-24-4 10-14 26-22 42-18z"/>
      <path d="M48 52c-10-8-22-8-32 0 12 2 22 10 26 22 2 8 0 16-6 22 14-6 24-20 22-36-1-3-4-6-10-8z"/>
      <path d="M40 98c-4 10-4 22 4 32 6-12 16-20 28-22-14-2-26-4-32-10z"/>
    </g>
  </g>
  <text x="184" y="96" font-family="Arial Black, Arial, Helvetica, sans-serif" font-size="72" font-weight="800" fill="#16324f" letter-spacing="2">NASM</text>
  <text x="186" y="136" font-family="Arial, Helvetica, sans-serif" font-size="14" font-weight="700" fill="#16324f" letter-spacing="0.4">NATIONAL ACADEMY OF SPORTS MEDICINE</text>
  <text x="622" y="136" font-family="Arial, Helvetica, sans-serif" font-size="13" font-weight="600" fill="#8a97a6" letter-spacing="1.2">SINCE 1987</text>
</svg>
